<svg width="24" height="24" viewBox="0 0 24 24" fill="none" xmlns="http://www.w3.org/2000/svg">
<path d="M11.8635 4.97934L12 5.10811L12.1365 4.97934C13.2986 3.84224 14.8576 3.20205 16.4835 3.19434C18.0774 3.19433 19.6061 3.82677 20.7341 4.95282C21.8621 6.07886 22.4972 7.60649 22.5 9.20035C22.5 12.4344 21.3135 13.9779 16.011 18.1674L12 21.2806L7.98901 18.1674C2.6865 13.9779 1.5 12.4344 1.5 9.20035C1.50278 7.60649 2.13789 6.07886 3.2659 4.95282C4.39392 3.82677 5.92265 3.19433 7.51651 3.19434C9.14237 3.20205 10.7014 3.84224 11.8635 4.97934Z" fill="black"/>
</svg>
